Coordinates
version=1
nRows=4
nColumns=63
inDegrees=yes

Units are S.I. units (second, meters, Newtons, ...)
If the header above contains a line with 'inDegrees', this indicates whether rotational values are in degrees (yes) or radians (no).

endheader
time	pelvis_tilt	pelvis_list	pelvis_rotation	pelvis_tx	pelvis_ty	pelvis_tz	hip_flexion_r	hip_adduction_r	hip_rotation_r	knee_angle_r	knee_angle_r_beta	ankle_angle_r	subtalar_angle_r	mtp_angle_r	hip_flexion_l	hip_adduction_l	hip_rotation_l	knee_angle_l	knee_angle_l_beta	ankle_angle_l	subtalar_angle_l	mtp_angle_l	L5_S1_Flex_Ext	L5_S1_Lat_Bending	L5_S1_axial_rotation	L4_L5_Flex_Ext	L4_L5_Lat_Bending	L4_L5_axial_rotation	L3_L4_Flex_Ext	L3_L4_Lat_Bending	L3_L4_axial_rotation	L2_L3_Flex_Ext	L2_L3_Lat_Bending	L2_L3_axial_rotation	L1_L2_Flex_Ext	L1_L2_Lat_Bending	L1_L2_axial_rotation	L1_T12_Flex_Ext	L1_T12_Lat_Bending	L1_T12_axial_rotation	Abs_r3	Abs_r2	Abs_r1	Abs_t1	Abs_t2	neck_flexion	neck_bending	neck_rotation	arm_flex_r	arm_add_r	arm_rot_r	elbow_flex_r	pro_sup_r	wrist_flex_r	wrist_dev_r	arm_flex_l	arm_add_l	arm_rot_l	elbow_flex_l	pro_sup_l	wrist_flex_l	wrist_dev_l
      3.13559322	      6.62847126	      0.40495911	    101.28696437	      0.21246027	      0.97738585	      0.61781406	     -5.36444734	      6.63903256	    -18.66800600	      4.46588038	      0.07794432	     11.79157813	      0.40519902	      0.00000000	     -2.90002597	     -7.96886983	     11.13696145	      5.11222934	      0.08922523	     25.41554796	      3.66882419	      0.00000000	     -0.78563634	      1.98103343	      4.85077109	     -1.45900525	      2.63477446	      5.15394429	     -1.29072195	      4.81668467	      5.15394429	     -0.89790378	      4.81668467	      4.24442471	     -0.72954191	      4.03972336	      3.94125151	     -0.44891261	      3.06862078	      3.63807832	     -5.61172184	     22.40984632	     26.97853359	      0.00000000	      0.00000000	    -10.86427855	    -14.67938333	      0.36176149	    -54.15095013	    -20.65067030	    -18.52199164	    107.05083179	     89.36546514	      9.55037165	    -15.04600823	     14.83455734	      7.41048106	    207.29941667	      0.04471299	      0.65530896	    -69.91368195	    -24.73237558
      3.15254237	      6.45833793	      0.16641522	    101.31154419	      0.21312446	      0.97302372	      0.61538327	     -5.05237526	      6.45641200	    -18.46127850	      4.83479900	      0.08438316	     13.55751539	     -0.65742858	      0.00000000	     -2.83518239	     -7.77799625	     12.34190813	      4.97410489	      0.08681451	     26.18784216	      2.76166986	      0.00000000	     -0.76045838	      1.92695883	      4.63527429	     -1.41224726	      2.56285524	      4.92497893	     -1.24935708	      4.68520769	      4.92497893	     -0.86912789	      4.68520769	      4.05586500	     -0.70616165	      3.92945444	      3.76616036	     -0.43452592	      2.98485922	      3.47645571	     -5.43187818	     21.79814364	     25.78000500	      0.00000000	      0.00000000	    -10.83947520	    -14.39675597	      1.42533123	    -52.33914770	    -22.10862224	    -16.43723213	    104.66270064	     89.40101306	      8.95214763	    -14.78763531	     14.29946599	      6.63761911	    206.22070892	      0.04641886	      0.68829261	    -69.90734495	    -24.72674015
      3.16949153	      6.32923955	     -0.12998977	    101.46705268	      0.21343874	      0.96791128	      0.61190509	     -4.70330028	      6.29729187	    -18.40310398	      5.32177119	      0.09288243	     15.34252923	     -1.64497885	      0.00000000	     -2.76690759	     -7.64291974	     13.32709710	      4.77908472	      0.08341076	     27.23360619	      2.40783358	      0.00000000	     -0.72248831	      1.86853168	      4.29832931	     -1.34173304	      2.48514714	      4.56697489	     -1.18697604	      4.54314793	      4.56697489	     -0.82573189	      4.54314793	      3.76103815	     -0.67090264	      3.81030981	      3.49239257	     -0.41282982	      2.89435557	      3.22374698	     -5.16066173	     21.13720409	     23.90601814	      0.00000000	      0.00000000	    -10.42047744	    -14.15904214	      3.03395144	    -49.78625654	    -23.79164025	    -13.82328044	    101.96954548	     89.38977316	      8.41358692	    -14.13701885	     13.39368156	      5.82520873	    204.08646872	      0.04875201	      0.70980037	    -69.89778727	    -24.71674036
      3.18644068	      6.15412859	     -0.45037707	    101.94996022	      0.21354174	      0.96216529	      0.60813317	     -4.32639557	      6.12932780	    -18.24654596	      5.92092158	      0.10333958	     17.16302698	     -2.87393607	      0.00000000	     -2.61970917	     -7.47892521	     14.62806453	      4.63584593	      0.08091078	     28.48590392	      2.12808318	      0.00000000	     -0.67650877	      1.79789736	      3.88974032	     -1.25634444	      2.39120349	      4.13284909	     -1.11143626	      4.37140764	      4.13284909	     -0.77318188	      4.37140764	      3.40352278	     -0.62820605	      3.66627230	      3.16041401	     -0.38655711	      2.78494301	      2.91730524	     -4.83223452	     20.33817452	     21.63356875	      0.00000000	      0.00000000	     -9.73498270	    -13.90506688	      4.61375619	    -46.69702789	    -25.15895851	    -10.95592106	     98.99727366	     89.32813133	      7.66375079	    -12.94701213	     12.48505082	      5.10750203	    201.44010345	      0.05181431	      0.71924553	    -69.88403751	    -24.70045585
